<svg xmlns="http://www.w3.org/2000/svg" width="1200" height="420" viewBox="0 0 1200 420" role="img" aria-labelledby="title desc">
<title id="title">GitHub Researcher daily activity</title>
<desc id="desc">Repositories analyzed per day and cumulative research archive over the latest thirty reports.</desc>
<rect width="1200" height="420" rx="20" fill="#f8fafc"/>
<text x="56" y="42" font-family="Inter,system-ui,sans-serif" font-size="22" font-weight="700" fill="#111827">30-day research activity</text>
<text x="1144" y="42" text-anchor="end" font-family="Inter,system-ui,sans-serif" font-size="14" fill="#64748b">daily analysis + cumulative archive</text>
<line x1="76" y1="316.0" x2="1124" y2="316.0" stroke="#e2e8f0"/>
<text x="64" y="321.0" text-anchor="end" font-family="Inter,system-ui,sans-serif" font-size="12" fill="#64748b">0</text>
<text x="1136" y="321.0" font-family="Inter,system-ui,sans-serif" font-size="12" fill="#64748b">0</text>
<line x1="76" y1="256.5" x2="1124" y2="256.5" stroke="#e2e8f0"/>
<text x="64" y="261.5" text-anchor="end" font-family="Inter,system-ui,sans-serif" font-size="12" fill="#64748b">12</text>
<text x="1136" y="261.5" font-family="Inter,system-ui,sans-serif" font-size="12" fill="#64748b">140</text>
<line x1="76" y1="197.0" x2="1124" y2="197.0" stroke="#e2e8f0"/>
<text x="64" y="202.0" text-anchor="end" font-family="Inter,system-ui,sans-serif" font-size="12" fill="#64748b">24</text>
<text x="1136" y="202.0" font-family="Inter,system-ui,sans-serif" font-size="12" fill="#64748b">280</text>
<line x1="76" y1="137.5" x2="1124" y2="137.5" stroke="#e2e8f0"/>
<text x="64" y="142.5" text-anchor="end" font-family="Inter,system-ui,sans-serif" font-size="12" fill="#64748b">37</text>
<text x="1136" y="142.5" font-family="Inter,system-ui,sans-serif" font-size="12" fill="#64748b">421</text>
<line x1="76" y1="78.0" x2="1124" y2="78.0" stroke="#e2e8f0"/>
<text x="64" y="83.0" text-anchor="end" font-family="Inter,system-ui,sans-serif" font-size="12" fill="#64748b">49</text>
<text x="1136" y="83.0" font-family="Inter,system-ui,sans-serif" font-size="12" fill="#64748b">561</text>
<rect x="83.0" y="257.7" width="21.0" height="58.3" rx="4" fill="#2563eb"><title>2026-08-10 · 12 repositories analyzed</title></rect>
<text x="93.5" y="340" text-anchor="middle" font-family="Inter,system-ui,sans-serif" font-size="11" fill="#64748b">08-10</text>
<rect x="117.9" y="257.7" width="21.0" height="58.3" rx="4" fill="#2563eb"><title>2026-08-11 · 12 repositories analyzed</title></rect>
<rect x="152.9" y="257.7" width="21.0" height="58.3" rx="4" fill="#2563eb"><title>2026-08-12 · 12 repositories analyzed</title></rect>
<rect x="187.8" y="257.7" width="21.0" height="58.3" rx="4" fill="#2563eb"><title>2026-08-13 · 12 repositories analyzed</title></rect>
<rect x="222.7" y="175.1" width="21.0" height="140.9" rx="4" fill="#2563eb"><title>2026-08-14 · 29 repositories analyzed</title></rect>
<rect x="257.7" y="146.0" width="21.0" height="170.0" rx="4" fill="#2563eb"><title>2026-08-15 · 35 repositories analyzed</title></rect>
<text x="268.1" y="340" text-anchor="middle" font-family="Inter,system-ui,sans-serif" font-size="11" fill="#64748b">08-15</text>
<rect x="292.6" y="97.4" width="21.0" height="218.6" rx="4" fill="#2563eb"><title>2026-08-16 · 45 repositories analyzed</title></rect>
<rect x="327.5" y="112.0" width="21.0" height="204.0" rx="4" fill="#2563eb"><title>2026-08-17 · 42 repositories analyzed</title></rect>
<rect x="362.5" y="107.1" width="21.0" height="208.9" rx="4" fill="#2563eb"><title>2026-08-18 · 43 repositories analyzed</title></rect>
<rect x="397.4" y="78.0" width="21.0" height="238.0" rx="4" fill="#2563eb"><title>2026-08-19 · 49 repositories analyzed</title></rect>
<rect x="432.3" y="92.6" width="21.0" height="223.4" rx="4" fill="#2563eb"><title>2026-08-20 · 46 repositories analyzed</title></rect>
<text x="442.8" y="340" text-anchor="middle" font-family="Inter,system-ui,sans-serif" font-size="11" fill="#64748b">08-20</text>
<rect x="467.3" y="126.6" width="21.0" height="189.4" rx="4" fill="#2563eb"><title>2026-08-21 · 39 repositories analyzed</title></rect>
<rect x="502.2" y="160.6" width="21.0" height="155.4" rx="4" fill="#2563eb"><title>2026-08-22 · 32 repositories analyzed</title></rect>
<rect x="537.1" y="286.9" width="21.0" height="29.1" rx="4" fill="#2563eb"><title>2026-08-23 · 6 repositories analyzed</title></rect>
<rect x="572.1" y="286.9" width="21.0" height="29.1" rx="4" fill="#2563eb"><title>2026-08-24 · 6 repositories analyzed</title></rect>
<rect x="607.0" y="286.9" width="21.0" height="29.1" rx="4" fill="#2563eb"><title>2026-08-25 · 6 repositories analyzed</title></rect>
<text x="617.5" y="340" text-anchor="middle" font-family="Inter,system-ui,sans-serif" font-size="11" fill="#64748b">08-25</text>
<rect x="641.9" y="286.9" width="21.0" height="29.1" rx="4" fill="#2563eb"><title>2026-08-26 · 6 repositories analyzed</title></rect>
<rect x="676.9" y="286.9" width="21.0" height="29.1" rx="4" fill="#2563eb"><title>2026-08-27 · 6 repositories analyzed</title></rect>
<rect x="711.8" y="286.9" width="21.0" height="29.1" rx="4" fill="#2563eb"><title>2026-08-28 · 6 repositories analyzed</title></rect>
<rect x="746.7" y="286.9" width="21.0" height="29.1" rx="4" fill="#2563eb"><title>2026-08-29 · 6 repositories analyzed</title></rect>
<rect x="781.7" y="286.9" width="21.0" height="29.1" rx="4" fill="#2563eb"><title>2026-08-30 · 6 repositories analyzed</title></rect>
<text x="792.1" y="340" text-anchor="middle" font-family="Inter,system-ui,sans-serif" font-size="11" fill="#64748b">08-30</text>
<rect x="816.6" y="286.9" width="21.0" height="29.1" rx="4" fill="#2563eb"><title>2026-08-31 · 6 repositories analyzed</title></rect>
<rect x="851.5" y="286.9" width="21.0" height="29.1" rx="4" fill="#2563eb"><title>2026-09-01 · 6 repositories analyzed</title></rect>
<rect x="886.5" y="277.1" width="21.0" height="38.9" rx="4" fill="#2563eb"><title>2026-09-02 · 8 repositories analyzed</title></rect>
<rect x="921.4" y="267.4" width="21.0" height="48.6" rx="4" fill="#2563eb"><title>2026-09-03 · 10 repositories analyzed</title></rect>
<rect x="956.3" y="267.4" width="21.0" height="48.6" rx="4" fill="#2563eb"><title>2026-09-05 · 10 repositories analyzed</title></rect>
<text x="966.8" y="340" text-anchor="middle" font-family="Inter,system-ui,sans-serif" font-size="11" fill="#64748b">09-05</text>
<rect x="991.3" y="277.1" width="21.0" height="38.9" rx="4" fill="#2563eb"><title>2026-09-06 · 8 repositories analyzed</title></rect>
<rect x="1026.2" y="267.4" width="21.0" height="48.6" rx="4" fill="#2563eb"><title>2026-09-07 · 10 repositories analyzed</title></rect>
<rect x="1061.1" y="272.3" width="21.0" height="43.7" rx="4" fill="#2563eb"><title>2026-09-08 · 9 repositories analyzed</title></rect>
<rect x="1096.1" y="267.4" width="21.0" height="48.6" rx="4" fill="#2563eb"><title>2026-09-09 · 10 repositories analyzed</title></rect>
<text x="1106.5" y="340" text-anchor="middle" font-family="Inter,system-ui,sans-serif" font-size="11" fill="#64748b">09-09</text>
<polyline points="93.5,128.9 128.4,128.1 163.3,127.6 198.3,126.4 233.2,124.7 268.1,122.5 303.1,121.7 338.0,121.3 372.9,120.4 407.9,120.0 442.8,120.0 477.7,120.0 512.7,118.3 547.6,116.6 582.5,114.1 617.5,111.5 652.4,109.0 687.3,106.4 722.3,103.9 757.2,103.0 792.1,100.5 827.1,98.8 862.0,98.4 896.9,96.7 931.9,94.5 966.8,90.7 1001.7,90.3 1036.7,86.1 1071.6,82.2 1106.5,78.0" fill="none" stroke="#d97706" stroke-width="3" stroke-linejoin="round" stroke-linecap="round"/>
<circle cx="1106.5" cy="78.0" r="5" fill="#d97706" stroke="#fff" stroke-width="2"/>
<rect x="76" y="365" width="12" height="12" rx="3" fill="#2563eb"/>
<text x="96" y="376" font-family="Inter,system-ui,sans-serif" font-size="13" fill="#334155">Repositories analyzed / day</text>
<line x1="300" y1="371" x2="328" y2="371" stroke="#d97706" stroke-width="3"/>
<text x="338" y="376" font-family="Inter,system-ui,sans-serif" font-size="13" fill="#334155">Cumulative research archive</text>
<text x="1144" y="376" text-anchor="end" font-family="Inter,system-ui,sans-serif" font-size="13" font-weight="600" fill="#111827">Latest: 2026-09-09 · 10 analyzed · 561 archived</text>
</svg>
